<mxfile host="app.diagrams.net" modified="2023-08-28T07:14:50.558Z" agent="Mozilla/5.0 (X11; Linux x86_64) AppleWebKit/537.36 (KHTML, like Gecko) Chrome/116.0.0.0 Safari/537.36" version="21.6.9" etag="eoR_V841Ixh3iERLG5MQ" type="github">
  <diagram name="Page-1" id="__-N6tqz1sMnJaXxXDmL">
    <mxGraphModel>
      <root>
        <mxCell id="0" />
        <mxCell id="1" parent="0" />
      </root>
    </mxGraphModel>
  </diagram>
</mxfile>
